<?xml version="1.0" encoding="UTF-8" standalone="no"?>
<!-- Created with Inkscape (http://www.inkscape.org/) -->

<svg
   width="64pt"
   height="64pt"
   viewBox="0 0 22.577778 22.577778"
   version="1.1"
   id="svg831"
   inkscape:version="1.1.1 (3bf5ae0d25, 2021-09-20)"
   sodipodi:docname="Export - Unblash - 64px.svg"
   inkscape:export-filename="C:\Users\User\Desktop\CARLOS PROJECT\3. MARET 1\EXPORT\FLAT\5 - Folder.png"
   inkscape:export-xdpi="576"
   inkscape:export-ydpi="576"
   xmlns:inkscape="http://www.inkscape.org/namespaces/inkscape"
   xmlns:sodipodi="http://sodipodi.sourceforge.net/DTD/sodipodi-0.dtd"
   xmlns="http://www.w3.org/2000/svg"
   xmlns:svg="http://www.w3.org/2000/svg"
   xmlns:rdf="http://www.w3.org/1999/02/22-rdf-syntax-ns#"
   xmlns:cc="http://creativecommons.org/ns#"
   xmlns:dc="http://purl.org/dc/elements/1.1/">
  <defs
     id="defs825">
    <pattern
       id="EMFhbasepattern"
       patternUnits="userSpaceOnUse"
       width="6"
       height="6"
       x="0"
       y="0" />
    <pattern
       id="EMFhbasepattern-9"
       patternUnits="userSpaceOnUse"
       width="6"
       height="6"
       x="0"
       y="0" />
    <pattern
       id="EMFhbasepattern-0"
       patternUnits="userSpaceOnUse"
       width="6"
       height="6"
       x="0"
       y="0" />
    <pattern
       id="EMFhbasepattern-7"
       patternUnits="userSpaceOnUse"
       width="6"
       height="6"
       x="0"
       y="0" />
    <pattern
       id="EMFhbasepattern-2"
       patternUnits="userSpaceOnUse"
       width="6"
       height="6"
       x="0"
       y="0" />
    <pattern
       id="EMFhbasepattern-98"
       patternUnits="userSpaceOnUse"
       width="6"
       height="6"
       x="0"
       y="0" />
    <pattern
       id="EMFhbasepattern-6"
       patternUnits="userSpaceOnUse"
       width="6"
       height="6"
       x="0"
       y="0" />
    <pattern
       id="EMFhbasepattern-01"
       patternUnits="userSpaceOnUse"
       width="6"
       height="6"
       x="0"
       y="0" />
    <pattern
       id="EMFhbasepattern-07"
       patternUnits="userSpaceOnUse"
       width="6"
       height="6"
       x="0"
       y="0" />
    <pattern
       id="EMFhbasepattern-8"
       patternUnits="userSpaceOnUse"
       width="6"
       height="6"
       x="0"
       y="0" />
    <pattern
       id="EMFhbasepattern-4"
       patternUnits="userSpaceOnUse"
       width="6"
       height="6"
       x="0"
       y="0" />
    <pattern
       id="EMFhbasepattern-40"
       patternUnits="userSpaceOnUse"
       width="6"
       height="6"
       x="0"
       y="0" />
    <pattern
       id="EMFhbasepattern-08"
       patternUnits="userSpaceOnUse"
       width="6"
       height="6"
       x="0"
       y="0" />
    <pattern
       id="EMFhbasepattern-04"
       patternUnits="userSpaceOnUse"
       width="6"
       height="6"
       x="0"
       y="0" />
    <pattern
       id="EMFhbasepattern-014"
       patternUnits="userSpaceOnUse"
       width="6"
       height="6"
       x="0"
       y="0" />
    <pattern
       id="EMFhbasepattern-27"
       patternUnits="userSpaceOnUse"
       width="6"
       height="6"
       x="0"
       y="0" />
    <pattern
       id="EMFhbasepattern-09"
       patternUnits="userSpaceOnUse"
       width="6"
       height="6"
       x="0"
       y="0" />
    <pattern
       id="EMFhbasepattern-5"
       patternUnits="userSpaceOnUse"
       width="6"
       height="6"
       x="0"
       y="0" />
    <pattern
       id="EMFhbasepattern-018"
       patternUnits="userSpaceOnUse"
       width="6"
       height="6"
       x="0"
       y="0" />
  </defs>
  <sodipodi:namedview
     id="base"
     pagecolor="#ffffff"
     bordercolor="#666666"
     borderopacity="1.0"
     inkscape:pageopacity="0.0"
     inkscape:pageshadow="2"
     inkscape:zoom="9.1757813"
     inkscape:cx="34.874414"
     inkscape:cy="42.666666"
     inkscape:document-units="pt"
     inkscape:current-layer="layer1"
     showgrid="false"
     units="pt"
     inkscape:window-width="1920"
     inkscape:window-height="1001"
     inkscape:window-x="-9"
     inkscape:window-y="41"
     inkscape:window-maximized="1"
     inkscape:pagecheckerboard="true"
     inkscape:showpageshadow="false"
     inkscape:object-paths="true"
     inkscape:snap-intersection-paths="true"
     inkscape:snap-smooth-nodes="true"
     inkscape:snap-midpoints="true"
     showguides="true"
     inkscape:snap-bbox="true"
     inkscape:bbox-nodes="true"
     inkscape:snap-nodes="false"
     inkscape:snap-global="true">
    <inkscape:grid
       type="xygrid"
       id="grid1378" />
    <sodipodi:guide
       position="0.97013831,21.607643"
       orientation="78.000048,0"
       id="guide1380"
       inkscape:locked="false" />
    <sodipodi:guide
       position="0.97013831,0.97013129"
       orientation="0,78.000005"
       id="guide1382"
       inkscape:locked="false" />
    <sodipodi:guide
       position="21.607639,0.97013129"
       orientation="-78.000048,0"
       id="guide1384"
       inkscape:locked="false" />
    <sodipodi:guide
       position="21.607639,21.607643"
       orientation="0,-78.000005"
       id="guide1386"
       inkscape:locked="false" />
  </sodipodi:namedview>
  <metadata
     id="metadata828">
    <rdf:RDF>
      <cc:Work
         rdf:about="">
        <dc:format>image/svg+xml</dc:format>
        <dc:type
           rdf:resource="http://purl.org/dc/dcmitype/StillImage" />
      </cc:Work>
    </rdf:RDF>
  </metadata>
  <g
     inkscape:label="Icon"
     inkscape:groupmode="layer"
     id="layer1"
     transform="translate(0,-274.42223)">
    <g
       id="g3029"
       style="display:inline;stroke-width:0.769231"
       transform="matrix(1.3000001,0,0,1.3000001,-79.025571,-49.728265)">
      <path
         style="color:#000000;fill:#e59f2e;stroke-width:0.769231;stroke-linecap:round;stroke-linejoin:round;-inkscape-stroke:none"
         d="m 65.75,253.26758 a 0.26461046,0.26461046 0 0 0 -0.208984,0.42969 l 7.792968,9.8457 a 0.26461046,0.26461046 0 0 0 0.207032,0.0996 h 1.935546 c 1.064974,0 1.933594,-0.86862 1.933594,-1.9336 v -6.50781 c 0,-1.06498 -0.868622,-1.93359 -1.933594,-1.93359 z"
         id="path398808" />
      <path
         id="path688926"
         style="fill:#ca7d02;fill-opacity:1;stroke-width:2.90733;stroke-linecap:round;stroke-linejoin:round"
         d="m 256.29883,-101.28711 h -7.79492 c -0.84062,-0.006 -1.31271,0.96542 -0.78907,1.623048 l 29.45313,37.21289 c 0.19035,0.237728 0.47865,0.375768 0.7832,0.375 h 7.31445 c 0.62265,0 1.22697,-0.07885 1.80469,-0.226562 1.86726,-1.794288 3.03711,-4.308677 3.03711,-7.080078 v -20.189454 c 0,-4.925744 -4.04887,-8.976562 -8.97461,-8.976562 h -23.58593 z"
         transform="matrix(0.26458334,0,0,0.26458334,0,280.06666)"
         sodipodi:nodetypes="cccccscssscc" />
      <path
         style="color:#000000;fill:#fcba4c;stroke-width:0.769231;stroke-linecap:round;stroke-linejoin:round;-inkscape-stroke:none"
         d="m 63.480469,252.41797 c -1.071119,0 -1.945313,0.8742 -1.945313,1.94531 v 7.3457 c 0,1.06497 0.868627,1.9336 1.933594,1.9336 h 10.683594 c 1.064968,0 1.935547,-0.86863 1.935547,-1.9336 v -5.34179 c 0,-0.93836 -0.76672,-1.70508 -1.705079,-1.70508 h -6.240234 c -0.296605,0 -0.560593,-0.17819 -0.671875,-0.45313 L 67.0625,253.20312 c -0.19158,-0.47332 -0.651494,-0.78515 -1.162109,-0.78515 z"
         id="path398616" />
      <path
         id="path3061"
         style="color:#000000;fill:#e59f2e;stroke-width:2.90733;stroke-linecap:round;stroke-linejoin:round;-inkscape-stroke:none"
         d="m 232.57422,-73.052734 v 1.99414 h 49 a 1.0000025,1.0000025 0 0 0 0.99805,-0.996094 1.0000025,1.0000025 0 0 0 -0.99805,-0.998046 z"
         transform="matrix(0.26458334,0,0,0.26458334,0,280.06666)" />
    </g>
  </g>
</svg>
